# xmcd
#
# Track frame offsets: 
#        150
#        13347
#        24896
#        38517
#        53012
#        68519
#        80823
#        99647
#        114443
#        124625
#        137148
#        150779
#        169400
#
# Disc length: 2389 seconds
#
# Revision: 0
# Processed by: cddbd v1.5.2PL0 Copyright (c) Steve Scherf et al.
# Submitted via: ExactAudioCopyFreeDBPlugin 1.0
#
DISCID=9a09530d
DTITLE=Country Sisters - The Best of 45 2
DYEAR=2018
DGENRE=Country
TTITLE0=Every Little Thing
TTITLE1=Let'er Rip
TTITLE2=Wrong Side of Love
TTITLE3=Honey I'm Home
TTITLE4=The Devil Went Down To Georgia
TTITLE5=If Wishes Were Horses
TTITLE6=Wayfaring Stranger
TTITLE7=Coalmine
TTITLE8=Rocky Top
TTITLE9=Other Side Of The Hill
TTITLE10=My Church
TTITLE11=Czardasz
TTITLE12=Déláme Co Muzem
EXTD=
EXTT0=
EXTT1=
EXTT2=
EXTT3=
EXTT4=
EXTT5=
EXTT6=
EXTT7=
EXTT8=
EXTT9=
EXTT10=
EXTT11=
EXTT12=
PLAYORDER=
